<?xml version="1.0" encoding="UTF-8"?>
<svg xmlns="http://www.w3.org/2000/svg" xmlns:xlink="http://www.w3.org/1999/xlink" width="37.5pt" height="37.499999pt" viewBox="0 0 37.5 37.499999" version="1.2">
<defs>
<filter id="alpha" filterUnits="objectBoundingBox" x="0%" y="0%" width="100%" height="100%">
  <feColorMatrix type="matrix" in="SourceGraphic" values="0 0 0 0 1 0 0 0 0 1 0 0 0 0 1 0 0 0 1 0"/>
</filter>
<mask id="mask0">
  <g filter="url(#alpha)">
<rect x="0" y="0" width="37.5" height="37.499999" style="fill:rgb(0%,0%,0%);fill-opacity:0.8275;stroke:none;"/>
  </g>
</mask>
<clipPath id="clip2">
  <path d="M 1 1 L 22.65625 1 L 22.65625 29.394531 L 1 29.394531 Z M 1 1 "/>
</clipPath>
<clipPath id="clip1">
  <rect x="0" y="0" width="23" height="30"/>
</clipPath>
<g id="surface5" clip-path="url(#clip1)">
<g clip-path="url(#clip2)" clip-rule="nonzero">
<path style=" stroke:none;fill-rule:nonzero;fill:rgb(100%,100%,100%);fill-opacity:1;" d="M 1.03125 1.195312 L 22.34375 1.195312 L 22.34375 29.140625 L 1.03125 29.140625 Z M 1.03125 1.195312 "/>
</g>
</g>
<clipPath id="clip3">
  <path d="M 4.6875 0 L 32.640625 0 L 32.640625 37.007812 L 4.6875 37.007812 Z M 4.6875 0 "/>
</clipPath>
<clipPath id="clip4">
  <path d="M 10.339844 10.792969 L 27.078125 10.792969 L 27.078125 27.527344 L 10.339844 27.527344 Z M 10.339844 10.792969 "/>
</clipPath>
</defs>
<g id="surface1">
<use xlink:href="#surface5" transform="matrix(1,0,0,1,6,4)" mask="url(#mask0)"/>
<g clip-path="url(#clip3)" clip-rule="nonzero">
<path style=" stroke:none;fill-rule:nonzero;fill:rgb(85.099792%,85.099792%,85.099792%);fill-opacity:1;" d="M 28.015625 0.0273438 L 7.042969 0.0273438 C 5.734375 0.0273438 4.6875 1.09375 4.6875 2.398438 L 4.6875 35.617188 C 4.6875 36.921875 5.734375 37.988281 7.042969 37.988281 L 30.285156 37.988281 C 31.5625 37.988281 32.640625 36.921875 32.640625 35.617188 L 32.640625 4.769531 Z M 10.503906 7.144531 L 23.304688 7.144531 C 23.941406 7.144531 24.464844 7.679688 24.464844 8.332031 C 24.464844 8.984375 23.941406 9.515625 23.304688 9.515625 L 10.503906 9.515625 C 9.863281 9.515625 9.339844 8.984375 9.339844 8.332031 C 9.339844 7.679688 9.863281 7.144531 10.503906 7.144531 Z M 26.792969 30.871094 L 10.503906 30.871094 C 9.863281 30.871094 9.339844 30.335938 9.339844 29.683594 C 9.339844 29.03125 9.863281 28.5 10.503906 28.5 L 26.792969 28.5 C 27.433594 28.5 27.957031 29.03125 27.957031 29.683594 C 27.957031 30.335938 27.433594 30.871094 26.792969 30.871094 Z M 26.792969 23.753906 L 10.503906 23.753906 C 9.863281 23.753906 9.339844 23.21875 9.339844 22.566406 C 9.339844 21.914062 9.863281 21.378906 10.503906 21.378906 L 26.792969 21.378906 C 27.433594 21.378906 27.957031 21.914062 27.957031 22.566406 C 27.957031 23.21875 27.433594 23.753906 26.792969 23.753906 Z M 26.792969 16.636719 L 10.503906 16.636719 C 9.863281 16.636719 9.339844 16.101562 9.339844 15.449219 C 9.339844 14.796875 9.863281 14.261719 10.503906 14.261719 L 26.792969 14.261719 C 27.433594 14.261719 27.957031 14.796875 27.957031 15.449219 C 27.957031 16.101562 27.433594 16.636719 26.792969 16.636719 Z M 29.121094 4.769531 C 28.480469 4.769531 27.957031 4.238281 27.957031 3.585938 L 27.957031 1.210938 L 31.449219 4.769531 Z M 29.121094 4.769531 "/>
</g>
<g clip-path="url(#clip4)" clip-rule="nonzero">
<path style=" stroke:none;fill-rule:nonzero;fill:rgb(0%,0%,0%);fill-opacity:1;" d="M 18.710938 27.527344 L 23.589844 27.527344 L 23.589844 26.132812 C 23.589844 26.132812 22.894531 26.132812 21.5 26.132812 C 20.105469 26.132812 20.105469 24.738281 20.105469 24.738281 L 20.105469 12.882812 C 20.105469 12.882812 22.894531 12.882812 24.289062 12.882812 C 25.683594 12.882812 25.683594 15.671875 25.683594 15.671875 L 27.078125 15.671875 L 27.078125 10.792969 L 10.339844 10.792969 L 10.339844 15.671875 L 11.738281 15.671875 C 11.738281 15.671875 11.738281 12.882812 13.132812 12.882812 C 14.527344 12.882812 17.316406 12.882812 17.316406 12.882812 L 17.316406 24.738281 C 17.316406 24.738281 17.316406 26.132812 15.921875 26.132812 C 14.527344 26.132812 13.828125 26.132812 13.828125 26.132812 L 13.828125 27.527344 Z M 18.710938 27.527344 "/>
</g>
</g>
</svg>
