<?xml version="1.0" encoding="UTF-8"?>
<svg xmlns="http://www.w3.org/2000/svg" xmlns:xlink="http://www.w3.org/1999/xlink" width="37.5pt" height="37.499999pt" viewBox="0 0 37.5 37.499999" version="1.2">
<defs>
<clipPath id="clip1">
  <path d="M 3.75 0 L 30 0 L 30 37.007812 L 3.75 37.007812 Z M 3.75 0 "/>
</clipPath>
<clipPath id="clip2">
  <path d="M 21 19 L 36.75 19 L 36.75 35 L 21 35 Z M 21 19 "/>
</clipPath>
</defs>
<g id="surface1">
<g clip-path="url(#clip1)" clip-rule="nonzero">
<path style=" stroke:none;fill-rule:nonzero;fill:rgb(0%,0%,0%);fill-opacity:1;" d="M 6.121094 37.5 L 27.457031 37.5 C 28.453125 37.5 29.308594 36.890625 29.65625 36.023438 C 29.515625 36.03125 29.375 36.035156 29.234375 36.035156 C 27.421875 36.035156 25.734375 35.496094 24.324219 34.570312 C 24.328125 34.570312 24.328125 34.570312 24.328125 34.570312 L 9.082031 34.570312 C 8.921875 34.570312 8.789062 34.4375 8.789062 34.277344 C 8.789062 34.117188 8.921875 33.984375 9.082031 33.984375 L 23.535156 33.984375 C 22.738281 33.324219 22.0625 32.53125 21.539062 31.640625 L 9.082031 31.640625 C 8.921875 31.640625 8.789062 31.507812 8.789062 31.347656 C 8.789062 31.1875 8.921875 31.054688 9.082031 31.054688 L 21.222656 31.054688 C 20.867188 30.324219 20.609375 29.535156 20.46875 28.710938 L 9.082031 28.710938 C 8.921875 28.710938 8.789062 28.578125 8.789062 28.417969 C 8.789062 28.257812 8.921875 28.125 9.082031 28.125 L 20.390625 28.125 C 20.359375 27.835938 20.34375 27.542969 20.34375 27.246094 C 20.34375 26.746094 20.390625 26.257812 20.46875 25.78125 L 9.082031 25.78125 C 8.921875 25.78125 8.789062 25.648438 8.789062 25.488281 C 8.789062 25.328125 8.921875 25.195312 9.082031 25.195312 L 20.589844 25.195312 C 20.792969 24.363281 21.117188 23.574219 21.539062 22.851562 L 9.082031 22.851562 C 8.921875 22.851562 8.789062 22.71875 8.789062 22.558594 C 8.789062 22.398438 8.921875 22.265625 9.082031 22.265625 L 21.914062 22.265625 C 22.558594 21.339844 23.382812 20.542969 24.332031 19.917969 C 24.328125 19.921875 24.328125 19.921875 24.328125 19.921875 L 9.082031 19.921875 C 8.921875 19.921875 8.789062 19.789062 8.789062 19.628906 C 8.789062 19.46875 8.921875 19.335938 9.082031 19.335938 L 24.492188 19.335938 C 24.65625 19.335938 24.789062 19.46875 24.789062 19.628906 C 24.789062 19.632812 24.785156 19.636719 24.785156 19.640625 C 26.097656 18.890625 27.613281 18.457031 29.234375 18.457031 C 29.433594 18.457031 29.628906 18.464844 29.828125 18.480469 L 29.828125 7.699219 L 20.199219 0 L 6.121094 0 C 4.8125 0 3.75 1.050781 3.75 2.34375 L 3.75 35.15625 C 3.75 36.449219 4.8125 37.5 6.121094 37.5 Z M 20.9375 2.234375 L 27.230469 7.324219 L 22.117188 7.324219 C 21.464844 7.324219 20.9375 6.824219 20.9375 6.214844 Z M 9.082031 10.546875 L 24.492188 10.546875 C 24.65625 10.546875 24.789062 10.679688 24.789062 10.839844 C 24.789062 11 24.65625 11.132812 24.492188 11.132812 L 9.082031 11.132812 C 8.921875 11.132812 8.789062 11 8.789062 10.839844 C 8.789062 10.679688 8.921875 10.546875 9.082031 10.546875 Z M 9.082031 13.476562 L 24.492188 13.476562 C 24.65625 13.476562 24.789062 13.609375 24.789062 13.769531 C 24.789062 13.929688 24.65625 14.0625 24.492188 14.0625 L 9.082031 14.0625 C 8.921875 14.0625 8.789062 13.929688 8.789062 13.769531 C 8.789062 13.609375 8.921875 13.476562 9.082031 13.476562 Z M 9.082031 16.40625 L 24.492188 16.40625 C 24.65625 16.40625 24.789062 16.539062 24.789062 16.699219 C 24.789062 16.859375 24.65625 16.992188 24.492188 16.992188 L 9.082031 16.992188 C 8.921875 16.992188 8.789062 16.859375 8.789062 16.699219 C 8.789062 16.539062 8.921875 16.40625 9.082031 16.40625 Z M 9.082031 16.40625 "/>
</g>
<g clip-path="url(#clip2)" clip-rule="nonzero">
<path style=" stroke:none;fill-rule:nonzero;fill:rgb(0%,0%,0%);fill-opacity:1;" d="M 29.234375 19.628906 C 24.980469 19.628906 21.53125 23.039062 21.53125 27.246094 C 21.53125 31.453125 24.980469 34.863281 29.234375 34.863281 C 33.488281 34.863281 36.9375 31.453125 36.9375 27.246094 C 36.9375 23.039062 33.488281 19.628906 29.234375 19.628906 Z M 32.050781 27.820312 L 29.855469 31.367188 C 29.683594 31.648438 29.457031 31.785156 29.234375 31.785156 C 29.007812 31.785156 28.785156 31.648438 28.613281 31.367188 L 26.417969 27.820312 C 26.074219 27.261719 26.351562 26.804688 27.039062 26.804688 L 27.457031 26.804688 L 27.457031 23.875 C 27.457031 23.230469 27.988281 22.703125 28.640625 22.703125 L 29.828125 22.703125 C 30.480469 22.703125 31.011719 23.230469 31.011719 23.875 L 31.011719 26.804688 L 31.429688 26.804688 C 32.117188 26.804688 32.394531 27.261719 32.050781 27.820312 Z M 32.050781 27.820312 "/>
</g>
</g>
</svg>
